<svg id="visual" viewBox="0 0 900 500" width="900" height="500" xmlns="http://www.w3.org/2000/svg" xmlns:xlink="http://www.w3.org/1999/xlink" version="1.1"><rect x="0" y="0" width="900" height="500" fill="#202731"></rect><path d="M0 351L150 354L300 367L450 363L600 294L750 352L900 362L900 501L750 501L600 501L450 501L300 501L150 501L0 501Z" fill="#f37314"></path><path d="M0 380L150 364L300 354L450 372L600 392L750 349L900 329L900 501L750 501L600 501L450 501L300 501L150 501L0 501Z" fill="#d85b0f"></path><path d="M0 372L150 416L300 365L450 403L600 416L750 377L900 407L900 501L750 501L600 501L450 501L300 501L150 501L0 501Z" fill="#bd440a"></path><path d="M0 423L150 431L300 441L450 450L600 404L750 442L900 408L900 501L750 501L600 501L450 501L300 501L150 501L0 501Z" fill="#a22d05"></path><path d="M0 459L150 470L300 446L450 467L600 441L750 449L900 448L900 501L750 501L600 501L450 501L300 501L150 501L0 501Z" fill="#871400"></path></svg>