<svg id="visual" viewBox="0 0 900 300" width="900" height="300" xmlns="http://www.w3.org/2000/svg" xmlns:xlink="http://www.w3.org/1999/xlink" version="1.1"><rect x="0" y="0" width="900" height="300" fill="#202731"></rect><path d="M0 76L21.5 80.3C43 84.7 86 93.3 128.8 96.2C171.7 99 214.3 96 257.2 92.3C300 88.7 343 84.3 385.8 88.5C428.7 92.7 471.3 105.3 514.2 107.8C557 110.3 600 102.7 642.8 103.3C685.7 104 728.3 113 771.2 110.2C814 107.3 857 92.7 878.5 85.3L900 78L900 0L878.5 0C857 0 814 0 771.2 0C728.3 0 685.7 0 642.8 0C600 0 557 0 514.2 0C471.3 0 428.7 0 385.8 0C343 0 300 0 257.2 0C214.3 0 171.7 0 128.8 0C86 0 43 0 21.5 0L0 0Z" fill="#ff6f31"></path><path d="M0 92L21.5 91.7C43 91.3 86 90.7 128.8 85.5C171.7 80.3 214.3 70.7 257.2 65.8C300 61 343 61 385.8 62.3C428.7 63.7 471.3 66.3 514.2 71.5C557 76.7 600 84.3 642.8 83.8C685.7 83.3 728.3 74.7 771.2 69.5C814 64.3 857 62.7 878.5 61.8L900 61L900 0L878.5 0C857 0 814 0 771.2 0C728.3 0 685.7 0 642.8 0C600 0 557 0 514.2 0C471.3 0 428.7 0 385.8 0C343 0 300 0 257.2 0C214.3 0 171.7 0 128.8 0C86 0 43 0 21.5 0L0 0Z" fill="#f75842"></path><path d="M0 45L21.5 48.3C43 51.7 86 58.3 128.8 59.8C171.7 61.3 214.3 57.7 257.2 54.3C300 51 343 48 385.8 49.7C428.7 51.3 471.3 57.7 514.2 59.2C557 60.7 600 57.3 642.8 54.8C685.7 52.3 728.3 50.7 771.2 52C814 53.3 857 57.7 878.5 59.8L900 62L900 0L878.5 0C857 0 814 0 771.2 0C728.3 0 685.7 0 642.8 0C600 0 557 0 514.2 0C471.3 0 428.7 0 385.8 0C343 0 300 0 257.2 0C214.3 0 171.7 0 128.8 0C86 0 43 0 21.5 0L0 0Z" fill="#eb4251"></path><path d="M0 44L21.5 43.5C43 43 86 42 128.8 43.7C171.7 45.3 214.3 49.7 257.2 49.5C300 49.3 343 44.7 385.8 43C428.7 41.3 471.3 42.7 514.2 41.7C557 40.7 600 37.3 642.8 39.3C685.7 41.3 728.3 48.7 771.2 49.3C814 50 857 44 878.5 41L900 38L900 0L878.5 0C857 0 814 0 771.2 0C728.3 0 685.7 0 642.8 0C600 0 557 0 514.2 0C471.3 0 428.7 0 385.8 0C343 0 300 0 257.2 0C214.3 0 171.7 0 128.8 0C86 0 43 0 21.5 0L0 0Z" fill="#db305e"></path><path d="M0 18L21.5 20C43 22 86 26 128.8 25C171.7 24 214.3 18 257.2 19C300 20 343 28 385.8 30.8C428.7 33.7 471.3 31.3 514.2 30.5C557 29.7 600 30.3 642.8 30.5C685.7 30.7 728.3 30.3 771.2 30.3C814 30.3 857 30.7 878.5 30.8L900 31L900 0L878.5 0C857 0 814 0 771.2 0C728.3 0 685.7 0 642.8 0C600 0 557 0 514.2 0C471.3 0 428.7 0 385.8 0C343 0 300 0 257.2 0C214.3 0 171.7 0 128.8 0C86 0 43 0 21.5 0L0 0Z" fill="#c62368"></path></svg>